<svg width="519" height="99" viewBox="0 0 519 99" fill="none" xmlns="http://www.w3.org/2000/svg">
<path d="M132.659 32.9V84H115.431V65.166H99.5169V84H82.2889V32.9H99.5169V51.004H115.431V32.9H132.659ZM140.449 44.069H156.947V84H140.449V44.069ZM148.698 40.857C145.729 40.857 143.32 40.0783 141.471 38.521C139.67 36.915 138.77 34.8953 138.77 32.462C138.77 30.0287 139.67 28.0333 141.471 26.476C143.32 24.87 145.729 24.067 148.698 24.067C151.715 24.067 154.124 24.8213 155.925 26.33C157.725 27.8387 158.626 29.7853 158.626 32.17C158.626 34.7007 157.725 36.7933 155.925 38.448C154.124 40.054 151.715 40.857 148.698 40.857ZM208.424 29.834V84H192.729V80.715C190.345 83.3917 186.695 84.73 181.779 84.73C178.275 84.73 175.039 83.9027 172.07 82.248C169.15 80.5447 166.814 78.1113 165.062 74.948C163.359 71.7847 162.507 68.1347 162.507 63.998C162.507 59.8613 163.359 56.2357 165.062 53.121C166.814 49.9577 169.15 47.5487 172.07 45.894C175.039 44.1907 178.275 43.339 181.779 43.339C186.208 43.339 189.59 44.4827 191.926 46.77V29.834H208.424ZM185.721 71.882C187.619 71.882 189.177 71.2007 190.393 69.838C191.61 68.4267 192.218 66.48 192.218 63.998C192.218 61.516 191.61 59.5937 190.393 58.231C189.177 56.8683 187.619 56.187 185.721 56.187C183.823 56.187 182.266 56.8683 181.049 58.231C179.833 59.5937 179.224 61.516 179.224 63.998C179.224 66.48 179.833 68.4267 181.049 69.838C182.266 71.2007 183.823 71.882 185.721 71.882ZM231.425 48.376C234.345 45.018 238.652 43.339 244.346 43.339V57.939C243.032 57.7443 241.815 57.647 240.696 57.647C235.051 57.647 232.228 60.5183 232.228 66.261V84H215.73V44.069H231.425V48.376ZM269.763 84.73C265.334 84.73 261.343 83.854 257.791 82.102C254.287 80.3013 251.537 77.8437 249.542 74.729C247.546 71.5657 246.549 67.9887 246.549 63.998C246.549 60.0073 247.546 56.4547 249.542 53.34C251.537 50.1767 254.287 47.719 257.791 45.967C261.343 44.215 265.334 43.339 269.763 43.339C274.24 43.339 278.231 44.215 281.735 45.967C285.287 47.719 288.037 50.1767 289.984 53.34C291.979 56.4547 292.977 60.0073 292.977 63.998C292.977 67.9887 291.979 71.5657 289.984 74.729C288.037 77.8437 285.287 80.3013 281.735 82.102C278.231 83.854 274.24 84.73 269.763 84.73ZM269.763 71.882C271.661 71.882 273.218 71.2007 274.435 69.838C275.651 68.4267 276.26 66.48 276.26 63.998C276.26 61.516 275.651 59.5937 274.435 58.231C273.218 56.8683 271.661 56.187 269.763 56.187C267.865 56.187 266.307 56.8683 265.091 58.231C263.874 59.5937 263.266 61.516 263.266 63.998C263.266 66.48 263.874 68.4267 265.091 69.838C266.307 71.2007 267.865 71.882 269.763 71.882ZM324.785 43.339C328.289 43.339 331.501 44.1907 334.421 45.894C337.39 47.5487 339.726 49.9577 341.429 53.121C343.181 56.2843 344.057 59.9343 344.057 64.071C344.057 68.2077 343.181 71.8577 341.429 75.021C339.726 78.1357 337.39 80.5447 334.421 82.248C331.501 83.9027 328.289 84.73 324.785 84.73C320.357 84.73 316.974 83.5863 314.638 81.299V98.162H298.14V44.069H313.835V47.354C316.22 44.6773 319.87 43.339 324.785 43.339ZM320.843 71.882C322.741 71.882 324.299 71.2007 325.515 69.838C326.732 68.4753 327.34 66.553 327.34 64.071C327.34 61.589 326.732 59.6667 325.515 58.304C324.299 56.8927 322.741 56.187 320.843 56.187C318.945 56.187 317.388 56.8927 316.171 58.304C314.955 59.6667 314.346 61.589 314.346 64.071C314.346 66.553 314.955 68.4753 316.171 69.838C317.388 71.2007 318.945 71.882 320.843 71.882ZM349.254 29.834H365.752V84H349.254V29.834ZM390.95 43.339C397.958 43.339 403.311 44.9207 407.01 48.084C410.709 51.1987 412.558 56.0167 412.558 62.538V84H397.228V78.744C395.33 82.7347 391.558 84.73 385.913 84.73C382.75 84.73 380.049 84.1947 377.81 83.124C375.62 82.0047 373.941 80.5203 372.773 78.671C371.654 76.773 371.094 74.656 371.094 72.32C371.094 68.378 372.603 65.385 375.62 63.341C378.637 61.297 383.212 60.275 389.344 60.275H395.987C395.452 57.1603 392.945 55.603 388.468 55.603C386.667 55.603 384.842 55.895 382.993 56.479C381.144 57.0143 379.562 57.7687 378.248 58.742L372.992 47.865C375.279 46.4537 378.029 45.3587 381.241 44.58C384.502 43.7527 387.738 43.339 390.95 43.339ZM390.877 74.802C392.045 74.802 393.091 74.4857 394.016 73.853C394.941 73.2203 395.622 72.2713 396.06 71.006V68.232H391.972C388.614 68.232 386.935 69.3513 386.935 71.59C386.935 72.5147 387.276 73.2933 387.957 73.926C388.687 74.51 389.66 74.802 390.877 74.802ZM447.428 43.339C452.343 43.339 456.285 44.8233 459.254 47.792C462.271 50.7607 463.78 55.238 463.78 61.224V84H447.282V64.071C447.282 59.4963 445.652 57.209 442.391 57.209C440.542 57.209 439.033 57.866 437.865 59.18C436.746 60.4453 436.186 62.465 436.186 65.239V84H419.688V44.069H435.383V48.011C436.94 46.4537 438.741 45.2857 440.785 44.507C442.829 43.7283 445.043 43.339 447.428 43.339ZM500.364 82.613C497.882 84.0243 494.5 84.73 490.217 84.73C484.62 84.73 480.313 83.3917 477.296 80.715C474.279 77.9897 472.77 73.926 472.77 68.524V58.304H467.295V46.259H472.77V35.09H489.268V46.259H497.444V58.304H489.268V68.378C489.268 69.5947 489.584 70.5437 490.217 71.225C490.85 71.9063 491.677 72.247 492.699 72.247C494.11 72.247 495.351 71.882 496.422 71.152L500.364 82.613Z" fill="url(#paint0_linear)"/>
<path d="M34.9073 97C62.9927 97 63.4755 69.741 57.1706 59.1707C50.8657 48.6005 39.0527 42.1136 32.0414 29.3659C27.1997 20.5628 26.4774 15.8809 28.4409 6.02785C23.8869 17.5302 22.4037 26.174 22.8628 38.5366C23.017 42.6873 23.3811 46.9206 23.9034 51.1463C24.4034 55.1918 25.0485 59.2303 25.7931 63.1829C27.2619 70.9796 29.1182 78.442 31.0135 84.9634C32.3316 89.4987 33.6686 93.579 34.9073 97Z" fill="url(#paint1_linear)"/>
<path d="M28.4409 6.02785C26.4774 15.8809 27.1997 20.5628 32.0414 29.3659C39.0527 42.1136 50.8657 48.6005 57.1706 59.1707C63.4755 69.741 62.9927 97 34.9073 97C33.6686 93.579 32.3316 89.4987 31.0135 84.9634C29.1182 78.442 27.2619 70.9796 25.7931 63.1829C25.0485 59.2303 24.4034 55.1918 23.9034 51.1463C23.3811 46.9206 23.017 42.6873 22.8628 38.5366C22.4037 26.174 23.8869 17.5302 28.4409 6.02785ZM28.4409 6.02785C28.999 4.99491 28.9798 4.53127 29.6585 3.57318C28.9047 4.05325 28.5372 5.13942 28.4409 6.02785Z" stroke="white" stroke-width="2"/>
<path d="M48.5732 67.1951C50.2927 71.0163 51.8976 80.1488 44.561 86.1098" stroke="#DBF7FF" stroke-width="2" stroke-linecap="round" stroke-linejoin="round"/>
<path d="M30.602 3C23.5329 6.05691 11.1142 15.0366 4.23611 35.6707C-1.85051 53.9306 2.51684 72.3537 2.51684 72.3537C2.51684 72.3537 7.10213 97 35.1875 97C33.9488 93.579 32.6118 89.4987 31.2937 84.9634C29.3984 78.442 27.5421 70.9796 26.0733 63.1829C25.3286 59.2303 24.6836 55.1918 24.1836 51.1463C23.6613 46.9205 23.2972 42.6873 23.143 38.5366C22.6839 26.174 24.0875 14.5442 28.7211 6.02784C29.1974 4.53991 29.8482 3.48007 30.602 3Z" fill="#77F884"/>
<path d="M30.602 3C23.5329 6.05691 11.1142 15.0366 4.23611 35.6707C-1.85051 53.9306 2.51684 72.3537 2.51684 72.3537C2.51684 72.3537 7.10213 97 35.1875 97C33.9488 93.579 32.6118 89.4987 31.2937 84.9634M30.602 3C29.9233 3.95809 29.2972 4.9689 28.7211 6.02784M30.602 3C29.8482 3.48007 29.1974 4.53991 28.7211 6.02784M31.2937 84.9634C29.3984 78.442 27.5421 70.9796 26.0733 63.1829M31.2937 84.9634C31.2937 84.9634 17.622 83.8171 9.59756 70.061M26.0733 63.1829C25.3286 59.2303 24.6836 55.1918 24.1836 51.1463C23.6613 46.9205 23.2972 42.6873 23.143 38.5366M26.0733 63.1829C26.0733 63.1829 17.622 59.7439 9.59756 45.9878M23.143 38.5366L15.6998 24.2073M23.143 38.5366C22.6839 26.174 24.0875 14.5442 28.7211 6.02784" stroke="white" stroke-width="2" stroke-linecap="round"/>
<defs>
<linearGradient id="paint0_linear" x1="362.523" y1="54.8333" x2="126.531" y2="17.4069" gradientUnits="userSpaceOnUse">
<stop stop-color="#77F884"/>
<stop offset="1" stop-color="#40D7FF"/>
</linearGradient>
<linearGradient id="paint1_linear" x1="41.6204" y1="3.57318" x2="41.6204" y2="97" gradientUnits="userSpaceOnUse">
<stop stop-color="#00C9FF"/>
<stop offset="1" stop-color="#66DEFF"/>
</linearGradient>
</defs>
</svg>
